<?xml version="1.0"?>
<svg xmlns="http://www.w3.org/2000/svg" xmlns:xlink="http://www.w3.org/1999/xlink" version="1.1" id="Capa_1" x="0px" y="0px" viewBox="0 0 425.945 425.945" style="enable-background:new 0 0 425.945 425.945;" xml:space="preserve" width="512px" height="512px"><g><g>
	<g>
		<g>
			<path d="M409.33,194.594h-60.383c-3.242-24.111-12.77-46.254-26.877-64.725l42.744-42.744c6.479-6.479,6.48-17.02,0.002-23.5     l-2.498-2.496c-3.137-3.137-7.309-4.865-11.746-4.865s-8.611,1.729-11.75,4.867l-42.746,42.744     c-18.473-14.104-40.613-23.631-64.725-26.873V16.617C231.352,7.455,223.898,0,214.738,0h-3.531     c-9.16,0-16.613,7.455-16.613,16.617v60.385c-24.109,3.24-46.252,12.768-64.725,26.873L87.123,61.129     c-3.139-3.137-7.311-4.865-11.748-4.865s-8.609,1.727-11.748,4.865l-2.496,2.498c-3.139,3.137-4.867,7.309-4.867,11.744     c-0.002,4.439,1.727,8.613,4.865,11.752l42.746,42.744c-14.107,18.473-23.635,40.615-26.877,64.727H16.613     C7.453,194.594,0,202.047,0,211.207v3.531c0,9.161,7.453,16.613,16.613,16.613h60.385c3.242,24.111,12.77,46.254,26.877,64.727     l-42.744,42.746c-6.479,6.477-6.479,17.017,0,23.496l2.496,2.494c3.139,3.139,7.31,4.869,11.748,4.869s8.609-1.728,11.748-4.867     l42.744-42.744c18.475,14.104,40.617,23.631,64.727,26.873v60.387c0,9.16,7.453,16.613,16.613,16.613h3.531     c9.16,0,16.613-7.453,16.613-16.613v-60.387c24.111-3.244,46.254-12.77,64.727-26.875l42.744,42.744     c3.139,3.139,7.311,4.867,11.748,4.867s8.611-1.729,11.748-4.865l2.498-2.498c6.478-6.477,6.477-17.02-0.002-23.496     l-42.744-42.744c14.107-18.473,23.635-40.615,26.877-64.727h60.383c9.162,0,16.615-7.452,16.615-16.613v-3.531     C425.945,202.047,418.492,194.594,409.33,194.594z M350.105,208.594h59.225c1.443,0,2.615,1.172,2.615,2.613v3.531     c0,1.441-1.172,2.614-2.615,2.614h-59.225c0.045-1.455,0.076-2.913,0.076-4.38C350.182,211.508,350.15,210.048,350.105,208.594z      M354.918,352.42l-2.498,2.496c-0.668,0.666-1.445,0.766-1.85,0.766s-1.182-0.1-1.85-0.766l-41.926-41.926     c2.131-2,4.195-4.064,6.195-6.195l41.926,41.926C355.936,349.742,355.936,351.4,354.918,352.42z M217.352,409.332     c0,1.441-1.172,2.613-2.613,2.613h-3.531c-1.441,0-2.613-1.172-2.613-2.613v-59.23c1.453,0.047,2.912,0.078,4.377,0.078     c1.467,0,2.926-0.031,4.381-0.078V409.332z M77.225,354.916c-0.668,0.668-1.445,0.767-1.85,0.767     c-0.404,0-1.182-0.102-1.85-0.767l-2.496-2.496c-1.02-1.02-1.02-2.678,0-3.697l41.926-41.926c2,2.129,4.064,4.195,6.195,6.193     L77.225,354.916z M119.15,112.955c-2.129,2-4.195,4.064-6.195,6.195L71.029,77.223c-0.668-0.666-0.766-1.443-0.766-1.848     s0.1-1.182,0.766-1.85l2.496-2.496c0.668-0.666,1.445-0.766,1.85-0.766c0.404,0,1.182,0.1,1.848,0.766 M208.594,16.617     c0-1.443,1.172-2.617,2.613-2.617h3.531c1.441,0,2.613,1.174,2.613,2.617v59.227c-1.455-0.045-2.914-0.076-4.381-0.076     c-1.465,0-2.924,0.031-4.377,0.076V16.617z M14,211.207c0-1.441,1.172-2.613,2.613-2.613H75.84     c-0.045,1.454-0.076,2.914-0.076,4.379c0,1.467,0.031,2.925,0.076,4.38H16.613c-1.441,0-2.613-1.173-2.613-2.614V211.207z      M212.971,336.18c-67.938,0-123.207-55.27-123.207-123.207c0-67.936,55.269-123.205,123.207-123.205     c67.939,0,123.211,55.27,123.211,123.205C336.182,280.91,280.91,336.18,212.971,336.18z M350.572,70.264     c0.404,0,1.182,0.1,1.848,0.766l2.496,2.496c1.02,1.02,1.02,2.68,0,3.699L312.99,119.15c-2-2.129-4.066-4.195-6.195-6.193     l41.928-41.926C349.389,70.363,350.168,70.264,350.572,70.264z" data-original="#000000" class="active-path" data-old_color="#000000" fill="#07B9EA"/>
			<path d="M212.977,98.543L212.977,98.543c-0.002,0-0.002,0-0.002,0c-0.002,0-0.002,0-0.004,0     c-63.094,0-114.424,51.334-114.424,114.43s51.33,114.43,114.424,114.43c63.096,0,114.43-51.334,114.43-114.43     C327.4,149.879,276.07,98.547,212.977,98.543z M205.977,112.791v72.9c-2.566,0.658-4.986,1.674-7.217,2.982l-51.639-51.463     C163.115,123.289,183.543,114.342,205.977,112.791z M188.809,198.523c-1.377,2.293-2.438,4.795-3.119,7.449h-72.894     c1.551-22.436,10.502-42.867,24.426-58.863L188.809,198.523z M185.689,219.973c0.668,2.607,1.707,5.066,3.049,7.326     l-51.527,51.527c-13.92-15.994-22.865-36.424-24.416-58.854H185.689z M205.977,313.154     c-22.437-1.551-42.871-10.502-58.867-24.428l51.525-51.525c2.264,1.344,4.729,2.385,7.342,3.055V313.154z M199.707,212.973     c0-7.326,5.939-13.266,13.266-13.266c7.326,0,13.266,5.939,13.266,13.266s-5.939,13.266-13.266,13.266     C205.646,226.238,199.707,220.299,199.707,212.973z M278.826,137.213l-51.529,51.527c-2.258-1.34-4.715-2.377-7.32-3.047v-72.902     C242.406,114.344,262.832,123.291,278.826,137.213z M219.977,313.154v-72.9c2.684-0.689,5.215-1.766,7.529-3.166l51.586,51.41     C263.059,302.551,242.531,311.592,219.977,313.154z M237.32,227.104c1.287-2.206,2.287-4.599,2.938-7.131h72.895     c-1.545,22.311-10.402,42.639-24.193,58.594L237.32,227.104z M240.258,205.973c-0.672-2.611-1.713-5.074-3.057-7.338     l51.523-51.523c13.926,15.994,22.875,36.426,24.428,58.861H240.258z" data-original="#000000" class="active-path" data-old_color="#000000" fill="#07B9EA"/>
		</g>
	</g>
</g></g> </svg>
